<?xml version="1.0" encoding="UTF-8" standalone="no"?>
<svg
   xmlns:dc="http://purl.org/dc/elements/1.1/"
   xmlns:cc="http://creativecommons.org/ns#"
   xmlns:rdf="http://www.w3.org/1999/02/22-rdf-syntax-ns#"
   xmlns:svg="http://www.w3.org/2000/svg"
   xmlns="http://www.w3.org/2000/svg"
   xmlns:sodipodi="http://sodipodi.sourceforge.net/DTD/sodipodi-0.dtd"
   xmlns:inkscape="http://www.inkscape.org/namespaces/inkscape"
   width="139"
   height="20"
   version="1.1"
   id="svg21"
   sodipodi:docname="logo.svg"
   inkscape:version="1.0 (4035a4fb49, 2020-05-01)">
  <metadata
     id="metadata25">
    <rdf:RDF>
      <cc:Work
         rdf:about="">
        <dc:format>image/svg+xml</dc:format>
        <dc:type
           rdf:resource="http://purl.org/dc/dcmitype/StillImage" />
      </cc:Work>
    </rdf:RDF>
  </metadata>
  <sodipodi:namedview
     inkscape:document-rotation="0"
     pagecolor="#ffffff"
     bordercolor="#666666"
     borderopacity="1"
     objecttolerance="10"
     gridtolerance="10"
     guidetolerance="10"
     inkscape:pageopacity="0"
     inkscape:pageshadow="2"
     inkscape:window-width="1280"
     inkscape:window-height="777"
     id="namedview23"
     showgrid="false"
     inkscape:zoom="7.8633094"
     inkscape:cx="70.823033"
     inkscape:cy="21.410272"
     inkscape:window-x="-8"
     inkscape:window-y="-8"
     inkscape:window-maximized="1"
     inkscape:current-layer="svg21" />
  <defs
     id="defs7">
    <linearGradient
       id="a"
       x1="72.195%"
       x2="17.503%"
       y1="0%"
       y2="100%">
      <stop
         offset="0%"
         stop-color="#33D35E"
         id="stop2" />
      <stop
         offset="100%"
         stop-color="#2AB6D9"
         id="stop4" />
    </linearGradient>
  </defs>
  <g
     fill="none"
     fill-rule="evenodd"
     id="g19">
    <path
       fill="#2D314D"
       fill-rule="nonzero"
       d="M37.754 15.847c2.852 0 5.152-1.622 5.952-4.216h-3.897c-.376.665-1.14 1.066-2.055 1.066-1.237 0-2.065-.674-2.32-1.978h8.44c.051-.352.081-.694.081-1.037 0-3.335-2.537-5.95-6.201-5.95-3.568 0-6.175 2.564-6.175 6.049 0 3.473 2.628 6.066 6.175 6.066zm2.344-7.297h-4.596c.317-1.129 1.11-1.749 2.252-1.749 1.181 0 2 .613 2.344 1.75zm10.946 7.296c1.32 0 2.5-.434 3.43-1.188l.336.804h3.027V4.093h-2.919l-.4.88c-.94-.775-2.135-1.222-3.474-1.222-3.476 0-5.961 2.505-5.961 6.026 0 3.533 2.485 6.07 5.961 6.07zm.524-3.467c-1.467 0-2.545-1.108-2.545-2.593 0-1.475 1.069-2.583 2.545-2.583 1.466 0 2.544 1.108 2.544 2.583 0 1.485-1.078 2.593-2.544 2.593zm13.123 3.467c3.02 0 5.025-1.554 5.025-3.93 0-2.883-2.387-3.256-4.183-3.575-1.08-.193-1.95-.344-1.95-.99 0-.527.422-.838 1.05-.838.71 0 1.197.337 1.197 1.063h3.667c-.044-2.303-1.92-3.843-4.816-3.843-2.912 0-4.854 1.47-4.854 3.75 0 2.757 2.337 3.289 4.1 3.574 1.092.181 1.952.368 1.952 1.024 0 .587-.543.88-1.116.88-.742 0-1.32-.383-1.32-1.214h-3.77c.036 2.463 1.919 4.1 5.018 4.1zm8.1 3.858c2.936 0 4.344-1.257 5.877-4.736l4.764-10.863h-4.206l-2.249 6.263-2.412-6.263H70.31l4.698 10.43c-.53 1.414-.983 1.804-2.48 1.804H71.45v3.365h1.341zm18.504-3.858c3.5 0 5.973-2.515 5.973-6.048S94.796 3.75 91.295 3.75a5.332 5.332 0 00-2.825.784V0H84.6v15.474h2.897l.37-.844c.923.771 2.102 1.216 3.428 1.216zm-.523-3.467c-1.467 0-2.545-1.108-2.545-2.58 0-1.486 1.078-2.594 2.545-2.594 1.466 0 2.544 1.108 2.544 2.593 0 1.473-1.087 2.58-2.544 2.58zm13.598 3.467c1.32 0 2.5-.434 3.43-1.188l.336.804h3.027V4.093h-2.918l-.401.88c-.939-.775-2.135-1.222-3.474-1.222-3.476 0-5.96 2.505-5.96 6.026 0 3.533 2.484 6.07 5.96 6.07zm.524-3.467c-1.467 0-2.545-1.108-2.545-2.593 0-1.475 1.07-2.583 2.545-2.583 1.467 0 2.545 1.108 2.545 2.583 0 1.485-1.078 2.593-2.545 2.593zm12.653 3.095V9.403c0-1.447.702-2.3 1.923-2.3.986 0 1.483.657 1.483 1.98v6.39h3.915V8.543c0-2.897-1.733-4.773-4.373-4.773-1.47 0-2.733.565-3.58 1.508l-.537-1.172h-2.747v11.369h3.916zm13.748 0v-4.808l2.848 4.808h4.616l-3.902-5.95 3.543-5.419h-4.397l-2.708 4.454V0h-3.916v15.474h3.916z"
       id="path9" />
    <g
       fill="url(#a)"
       id="g17">
      <path
         d="M10.802 0L0 19.704h5.986L16.789 0z"
         id="path11" />
      <path
         opacity=".5"
         d="M18.171 0L7.368 19.704h5.986L24.157 0z"
         id="path13" />
      <path
         opacity=".15"
         d="M25.539 0L14.737 19.704h5.986L31.525 0z"
         id="path15" />
    </g>
  </g>
  <path
     style="fill:#ffffff;stroke-width:0.127173"
     d="m 35.862763,15.482966 c -1.099628,-0.355518 -1.771916,-0.752475 -2.489217,-1.469776 -1.498173,-1.498173 -2.068239,-3.798689 -1.473127,-5.9448469 0.909696,-3.280649 4.589844,-5.0806536 7.993388,-3.9096628 1.035034,0.356104 1.67063,0.7638024 2.41072,1.5463382 1.071013,1.1324386 1.57013,2.4253789 1.57013,4.0673546 v 0.8634919 h -4.262716 -4.262715 l 0.08234,0.349725 c 0.131084,0.556718 0.537625,1.143131 0.978087,1.410839 0.945625,0.574738 2.309112,0.434875 3.108283,-0.318839 l 0.456884,-0.430898 1.822693,0.03507 1.822692,0.03507 -0.378664,0.800321 c -0.6746,1.425791 -1.991696,2.499155 -3.682057,3.000684 -0.936751,0.277934 -2.783077,0.260516 -3.696726,-0.03487 z M 40.036024,8.2069884 C 39.67063,7.1588174 38.413707,6.5551158 37.166285,6.8286493 36.47515,6.9802008 36.121383,7.2346988 35.746052,7.8503589 c -0.46371,0.7606282 -0.491126,0.750739 2.081276,0.750739 h 2.346083 z"
     id="path27" />
  <path
     style="fill:#ffffff;stroke-width:0.127173"
     d="M 49.279506,15.551219 C 47.501591,14.963863 46.200041,13.722443 45.526064,11.97118 45.142135,10.973581 45.095,8.908837 45.431356,7.8225099 46.545537,4.2240381 50.969218,2.68329 54.140876,4.789023 l 0.410318,0.272419 0.217307,-0.4556981 0.217308,-0.4556982 h 1.375348 1.375348 v 5.5956085 5.5956088 h -1.44706 -1.44706 l -0.150664,-0.363736 -0.150665,-0.363736 -1.019825,0.521042 c -0.984294,0.502888 -1.067089,0.522146 -2.376429,0.55274 -0.865685,0.02023 -1.540687,-0.02912 -1.865296,-0.136354 z m 3.43893,-3.373976 c 1.968423,-0.89413 1.896679,-4.0820158 -0.10892,-4.8397838 -0.46074,-0.1740796 -1.621055,-0.1740796 -2.081795,0 -0.840704,0.3176398 -1.558755,1.395012 -1.562645,2.3446085 -0.0067,1.6249763 1.046404,2.7286323 2.603542,2.7286323 0.349726,0 0.867144,-0.105056 1.149818,-0.233457 z"
     id="path29" />
  <path
     style="fill:#ffffff;stroke-width:0.127173"
     d="m 62.553745,15.436741 c -0.463075,-0.161988 -1.055678,-0.457538 -1.316897,-0.656779 -0.782627,-0.596939 -1.462765,-1.858392 -1.464867,-2.716894 -7.08e-4,-0.289522 -2.7e-5,-0.289617 1.811505,-0.254346 1.738115,0.03384 1.813791,0.04634 1.850781,0.30562 0.07203,0.504875 0.618575,0.874222 1.293642,0.874222 0.765691,0 1.147663,-0.30187 1.147663,-0.906989 0,-0.584142 -0.310977,-0.753892 -2.047312,-1.117553 C 63.030791,10.796999 62.206633,10.59441 61.996798,10.513824 61.305314,10.248264 60.650616,9.7087892 60.303716,9.1187151 60.00905,8.6174898 59.962334,8.397511 59.964232,7.5201281 c 0.0025,-1.1544174 0.243062,-1.7544833 0.972245,-2.4251755 0.57061,-0.5248388 0.940789,-0.7398619 1.696185,-0.9852508 1.890738,-0.6142021 4.314941,-0.2523453 5.601465,0.8361212 0.467869,0.3958416 1.021146,1.3810383 1.142174,2.0338202 l 0.08842,0.4768984 H 67.683932 65.903145 L 65.82393,7.1409225 C 65.714562,6.7051671 65.071105,6.3941682 64.450985,6.4773437 c -0.64638,0.086698 -0.864526,0.2846003 -0.864526,0.7843 0,0.6280962 0.320215,0.8101405 2.051348,1.1662067 0.865194,0.1779565 1.844434,0.4396486 2.176089,0.5815381 1.30536,0.5584629 2.042925,1.9923115 1.772589,3.4459695 -0.18168,0.976931 -0.673867,1.794769 -1.37941,2.292082 -1.009314,0.71143 -1.608453,0.882002 -3.2853,0.935309 -1.344971,0.04276 -1.625992,0.01356 -2.36803,-0.246008 z"
     id="path31" />
  <path
     style="fill:#ffffff;stroke-width:0.127173"
     d="m 71.47118,18.029903 v -1.671257 l 1.049177,-4.71e-4 c 0.822487,-3.68e-4 1.13873,-0.05508 1.463651,-0.253183 0.425372,-0.259352 0.86939,-0.86464 0.99954,-1.362576 0.05147,-0.196929 -0.600332,-1.774875 -2.180062,-5.2776761 -1.239418,-2.7482212 -2.281256,-5.0682966 -2.315195,-5.155728 -0.04779,-0.1231204 0.397119,-0.1589662 1.97306,-0.1589662 1.508543,0 2.051491,0.041111 2.099433,0.1589662 0.03557,0.087431 0.560317,1.4465919 1.166111,3.0203568 0.605795,1.5737649 1.148081,2.9087423 1.20508,2.9666153 0.057,0.05787 0.275798,-0.3713348 0.486221,-0.9537967 0.210422,-0.5824619 0.716153,-1.9889737 1.123847,-3.1255816 l 0.741261,-2.06656 h 2.021085 c 1.565969,0 2.006778,0.035797 1.957555,0.1589662 -0.498582,1.2475545 -4.848031,11.0152191 -5.280646,11.8588751 -0.411523,0.802523 -0.83538,1.396516 -1.418369,1.987697 -1.078455,1.093613 -1.80621,1.38233 -3.72464,1.47765 l -1.367109,0.06793 z"
     id="path33" />
  <path
     style="fill:#ffffff;stroke-width:0.127173"
     d="m 89.569704,15.486593 c -0.362715,-0.125335 -0.890846,-0.380992 -1.173623,-0.568126 -0.282778,-0.187133 -0.539544,-0.340242 -0.570592,-0.340242 -0.03105,0 -0.122554,0.200297 -0.203348,0.445105 l -0.146898,0.445105 h -1.38904 -1.389039 V 7.7744739 0.08051235 h 1.844007 1.844007 V 2.3060384 c 0,1.2240394 0.04995,2.2255261 0.111007,2.2255261 0.06105,0 0.372953,-0.1158709 0.693108,-0.2574909 2.061911,-0.9120813 4.675878,-0.3981235 6.290968,1.2369289 1.183569,1.1981976 1.671115,2.4505316 1.67674,4.3069493 0.01051,3.4699332 -2.374605,5.9023712 -5.783259,5.8979952 -0.766752,-10e-4 -1.362243,-0.07669 -1.804038,-0.229354 z m 2.317991,-3.30935 c 1.012488,-0.45991 1.524139,-1.420479 1.432373,-2.6891277 -0.101603,-1.4046465 -1.090013,-2.2859195 -2.563822,-2.2859195 -1.333409,0 -2.250521,0.7470676 -2.518341,2.0514066 -0.443852,2.1616476 1.644507,3.8345146 3.64979,2.9236406 z"
     id="path35" />
  <path
     style="fill:#ffffff;stroke-width:0.127173"
     d="m 102.4711,15.475829 c -3.347213,-1.070019 -4.957236,-5.028712 -3.404166,-8.3700973 1.441596,-3.1015422 5.656076,-4.2695225 8.387616,-2.3244979 0.20007,0.1424623 0.39341,0.2590224 0.42965,0.2590224 0.0362,0 0.13199,-0.2002974 0.21278,-0.4451052 l 0.1469,-0.4451053 h 1.45262 1.45263 v 5.5956085 5.5956088 h -1.51363 -1.51364 l -0.13632,-0.391058 c -0.14312,-0.410554 -0.16233,-0.409706 -0.80564,0.03555 -1.06194,0.734995 -3.23512,0.961173 -4.7088,0.490076 z m 3.4345,-3.256373 c 1.88926,-0.789385 2.14648,-3.5624453 0.43132,-4.6501649 -1.0943,-0.6939859 -2.75321,-0.4314191 -3.49853,0.5537344 -0.68758,0.9088484 -0.72159,2.1843335 -0.085,3.1881155 0.626,0.987104 2.00952,1.385766 3.15222,0.908315 z"
     id="path37" />
  <path
     style="fill:#ffffff;stroke-width:0.127173"
     d="M 113.69259,9.8092406 V 4.1500457 h 1.30997 1.30998 l 0.27803,0.5722782 c 0.31444,0.6472037 0.39745,0.6814667 0.73838,0.3047517 0.95018,-1.0499368 3.21277,-1.4676884 4.77778,-0.8821416 0.98674,0.3691844 1.67264,1.0052995 2.16766,2.0103086 l 0.41866,0.8499648 0.0382,4.2316136 0.0382,4.231614 h -1.85037 -1.85037 V 12.30647 c 0,-3.6954519 -0.0898,-4.3832896 -0.63726,-4.8817216 -0.7085,-0.6450336 -2.04754,-0.3922027 -2.63053,0.4966835 -0.20493,0.3124514 -0.23364,0.7346359 -0.26852,3.9484321 l -0.0391,3.598571 h -1.90033 -1.90033 z"
     id="path39" />
  <path
     style="fill:#ffffff;stroke-width:0.127173"
     d="M 127.42726,7.7744739 V 0.08051235 h 1.9076 1.90759 l 0.004,4.29208605 c 0.004,3.8576031 0.0235,4.2663388 0.19626,4.0377401 0.10572,-0.1398902 0.73781,-1.1556839 1.40465,-2.2573193 l 1.21243,-2.0029735 h 2.09607 c 1.64233,0 2.07566,0.034411 2.00182,0.1589662 -0.0518,0.087431 -0.83052,1.2878621 -1.73042,2.6676239 -1.39919,2.1452891 -1.61652,2.5454091 -1.50039,2.7623853 0.0747,0.1395503 0.89765,1.4142219 1.82881,2.8326049 0.93117,1.418382 1.7346,2.650412 1.7854,2.737843 0.0724,0.124611 -0.3839,0.158966 -2.11134,0.158966 h -2.2037 l -1.46003,-2.448078 -1.46002,-2.448079 -0.0345,2.448079 -0.0345,2.448078 h -1.90485 -1.90485 z"
     id="path41" />
  <path
     style="fill:#ffffff;stroke-width:0.127173"
     d=""
     id="path43" />
  <path
     id="path24"
     d="m 49.579789,15.54816 c -1.437747,-0.306574 -2.989782,-1.601073 -3.74031,-3.119665 -0.383902,-0.776772 -0.463247,-1.089234 -0.52718,-2.076046 -0.163347,-2.5212867 0.6507,-4.2946725 2.528542,-5.5083804 1.035999,-0.6695984 2.097609,-0.9299907 3.515216,-0.8622141 1.021346,0.048831 1.250175,0.1083258 2.140568,0.5565389 0.548334,0.2760245 1.028784,0.5172361 1.067666,0.5360258 0.03888,0.01879 0.16672,-0.1672008 0.284082,-0.413312 l 0.213386,-0.447475 h 1.337373 1.337373 v 5.532022 5.5320218 H 56.301898 54.86729 l -0.146219,-0.38738 -0.14622,-0.38738 -1.049858,0.527859 c -0.975766,0.490605 -1.135698,0.53097 -2.266154,0.571959 -0.668963,0.02426 -1.424535,-3.06e-4 -1.67905,-0.05457 z m 2.843297,-3.201057 c 1.073931,-0.29826 1.744972,-1.292709 1.749784,-2.5930905 0.0069,-1.858576 -1.399752,-2.9293196 -3.364113,-2.560803 -1.016139,0.1906287 -1.849032,1.355337 -1.84439,2.5791716 0.0074,1.9471489 1.559129,3.1022899 3.458719,2.5747219 z"
     style="fill:#666666;stroke-width:0.127173" />
  <path
     id="path26"
     d="M 63.30305,15.562144 C 62.48566,15.41899 61.333358,14.826937 60.890542,14.322599 60.378421,13.739325 59.882068,12.72319 59.882068,12.25805 v -0.385747 h 1.534436 c 1.533484,0 2.026406,0.107115 2.026406,0.44035 0,0.350193 0.640853,0.704206 1.274791,0.704206 0.690011,0 1.086373,-0.257875 1.211838,-0.788431 0.148715,-0.62887 -0.313747,-0.907767 -2.265824,-1.366448 C 61.714488,10.403968 61.034392,10.046858 60.438521,9.1684713 60.106674,8.6792877 60.072827,8.5293455 60.072827,7.548424 c 0,-0.9487976 0.04253,-1.1533139 0.347816,-1.6726349 0.411515,-0.7000226 1.152212,-1.2763836 2.125971,-1.6542885 0.934126,-0.3625239 2.916174,-0.4005528 3.964208,-0.07606 1.440538,0.4460203 2.483842,1.5085252 2.782785,2.8339983 l 0.09964,0.4418121 H 67.696749 66.000247 L 65.834341,7.0752473 C 65.630793,6.6507376 65.177874,6.4082244 64.58397,6.4057425 c -0.677142,-0.00283 -1.013887,0.2935265 -1.013887,0.8922811 0,0.643723 0.230005,0.7656917 2.418839,1.2826789 2.044979,0.4830093 2.691283,0.8624472 3.208562,1.8837095 0.984935,1.944553 -0.246976,4.369386 -2.511665,4.943837 -0.728211,0.184715 -2.69571,0.274224 -3.382769,0.153895 z"
     style="fill:#666666;stroke-width:0.127173" />
  <path
     id="path28"
     d="m 71.581977,18.04019 v -1.589662 l 0.731244,-0.003 c 1.175122,-0.0049 1.698043,-0.177336 2.166019,-0.714361 0.554885,-0.636757 0.624074,-0.983886 0.350237,-1.757184 C 74.704602,13.623313 73.7185,11.360432 72.638138,8.9473261 71.557776,6.53422 70.643139,4.4883257 70.605612,4.4008943 c -0.09826,-0.2289223 3.689508,-0.2289223 3.864637,0 0.09306,0.1216462 1.360386,3.3181242 2.268942,5.7227817 0.112216,0.297001 0.271086,0.280824 0.445664,-0.04538 0.07887,-0.1473624 0.587534,-1.5065229 1.130373,-3.0203573 l 0.98698,-2.7524261 1.926252,-0.035106 c 1.059439,-0.019308 1.926252,-2.863e-4 1.926252,0.042271 0,0.094305 -0.301964,0.7877577 -2.571932,5.9063754 -2.672925,6.027259 -3.001232,6.670865 -3.904967,7.655206 -0.986814,1.07483 -1.749566,1.463994 -3.195103,1.630177 -0.59076,0.06792 -1.2601,0.123918 -1.487422,0.124448 l -0.413311,9.65e-4 z"
     style="fill:#666666;stroke-width:0.127173" />
  <path
     id="path30"
     d="m 90.149223,15.557828 c -0.314753,-0.06463 -0.96281,-0.320169 -1.440127,-0.567874 -0.477317,-0.247705 -0.916429,-0.420348 -0.975806,-0.383652 -0.05938,0.0367 -0.145521,0.237749 -0.191433,0.446783 l -0.08347,0.38006 H 86.133171 84.80796 V 7.8027699 0.17239479 h 1.780421 1.780421 V 2.3979208 c 0,1.2240394 0.0218,2.2255261 0.04845,2.2255261 0.02665,0 0.412933,-0.1371775 0.858417,-0.3048389 2.223913,-0.8369864 4.507733,-0.3591655 6.138047,1.2842026 0.935093,0.9425796 1.439285,1.9687399 1.601297,3.2590477 0.376046,2.9949417 -1.075902,5.5678257 -3.639891,6.4499677 -0.84381,0.290313 -2.423402,0.410771 -3.225894,0.246002 z m 1.538258,-3.244718 c 0.66942,-0.236185 1.073361,-0.595359 1.411671,-1.255223 0.205128,-0.400096 0.245932,-0.685948 0.210176,-1.4723941 -0.03828,-0.8420542 -0.09467,-1.0418621 -0.411125,-1.4567455 -0.911657,-1.1952289 -3.090719,-1.2907091 -4.111791,-0.1801671 -0.648947,0.7058102 -0.847009,2.0710737 -0.430854,2.9699257 0.601281,1.298706 1.974568,1.873507 3.331923,1.394604 z"
     style="fill:#666666;stroke-width:0.127173" />
  <path
     id="path32"
     d="m 103.10817,15.558635 c -1.38292,-0.233905 -2.88384,-1.301884 -3.672065,-2.612867 -1.798043,-2.9905214 -0.738367,-6.855607 2.295735,-8.3735049 1.78966,-0.8953336 3.4447,-0.8815616 5.24033,0.043606 l 0.98992,0.5100392 0.12285,-0.3230962 c 0.0676,-0.1777029 0.12284,-0.3765985 0.12284,-0.4419902 0,-0.066851 0.64017,-0.118894 1.46249,-0.118894 h 1.46248 v 5.5320219 5.5320222 h -1.46648 c -1.28164,0 -1.47648,-0.02805 -1.54581,-0.222553 -0.19219,-0.53911 -0.30019,-0.555726 -1.00205,-0.154163 -1.10407,0.631687 -2.60442,0.867156 -4.01024,0.629379 z m 2.56896,-3.195203 c 1.43654,-0.480971 2.20165,-2.045073 1.71585,-3.5076848 -0.36016,-1.0843206 -1.24248,-1.6906352 -2.45359,-1.686049 -2.01315,0.00762 -3.16885,1.6536959 -2.51282,3.5790328 0.44774,1.314042 1.93781,2.054228 3.25056,1.614701 z"
     style="fill:#666666;stroke-width:0.127173" />
  <path
     id="path34"
     d="M 113.80339,9.8375365 V 4.2419282 h 1.2563 1.2563 l 0.16251,0.3923501 c 0.31049,0.7495937 0.47128,0.8074687 0.9865,0.3550988 0.75151,-0.6598385 1.47842,-0.916372 2.76062,-0.9742529 0.94518,-0.042667 1.27026,-0.0043 1.86616,0.2202741 0.89329,0.3366369 1.63478,1.0387177 2.11835,2.0057436 l 0.36755,0.735004 0.0877,4.2284991 0.0877,4.2285 h -1.76642 -1.76642 l -0.0841,-3.401876 c -0.0462,-1.871031 -0.14295,-3.6128011 -0.21491,-3.8705995 -0.36265,-1.2991027 -2.01512,-1.5286907 -3.04838,-0.4235307 l -0.31793,0.3400541 -0.0405,3.6779761 -0.0405,3.677976 h -1.83528 -1.83527 z"
     style="fill:#666666;stroke-width:0.127173" />
  <path
     id="path36"
     d="m 131.21133,4.2419282 c 0,-0.314753 0.0248,-0.4435156 0.0551,-0.2861391 0.0303,0.1573765 0.0303,0.4149016 0,0.5722781 -0.0303,0.1573765 -0.0551,0.028614 -0.0551,-0.286139 z"
     style="fill:#666666;stroke-width:0.127173" />
  <path
     id="path38"
     d="M 36.560042,15.55838 C 35.918785,15.447229 34.757378,15.011262 34.348822,14.728338 33.66793,14.25682 32.735941,13.181228 32.388739,12.46624 31.537285,10.712855 31.519776,8.9201579 32.336979,7.1669053 32.742651,6.2965666 33.988182,5.0253552 34.87614,4.5753928 c 2.402141,-1.2172567 5.237246,-0.8144821 7.157147,1.0167938 1.174496,1.1202793 1.775609,2.5450153 1.775609,4.2084824 v 0.799905 h -4.260293 c -3.324941,0 -4.259679,0.0349 -4.257499,0.158966 0.0053,0.300162 0.472538,1.176526 0.775261,1.454018 0.898596,0.823698 2.765131,0.71964 3.597328,-0.200549 0.224989,-0.248778 0.372875,-0.267879 2.074018,-0.267879 h 1.831754 l -0.406182,0.762076 c -1.222854,2.29431 -3.881733,3.522903 -6.603243,3.051174 z m 3.688014,-6.9524211 c 0,-0.3256109 -0.598552,-1.2195005 -0.970515,-1.4493864 -1.274094,-0.787433 -2.796129,-0.5163988 -3.57289,0.6362372 -0.360129,0.5343948 -0.360487,0.6253532 -0.003,0.7690347 0.331574,0.1332767 4.546431,0.174174 4.546431,0.044114 z"
     style="fill:#666666;stroke-width:0.127173" />
  <path
     id="path40"
     d="M 127.54215,7.8027699 V 0.17239479 h 1.83737 1.83736 V 4.2607194 c 0,2.2653066 0.0512,4.1395671 0.11492,4.2032417 0.0684,0.068441 0.64975,-0.7613117 1.43734,-2.0516428 l 1.32242,-2.1665598 2.00688,-0.00192 2.00688,-0.00192 -0.43044,0.6676578 c -2.94018,4.5605166 -2.94687,4.5726045 -2.74357,4.9524752 0.0814,0.1521155 0.89188,1.4168785 1.80104,2.8105855 1.28587,1.971179 1.61399,2.558732 1.4773,2.645307 -0.0967,0.06121 -1.01801,0.112173 -2.04747,0.113244 l -1.87173,0.0019 -1.49835,-2.511665 -1.49834,-2.511665 -0.0345,2.511665 -0.0345,2.511665 h -1.84132 -1.84132 z"
     style="fill:#666666;stroke-width:0.127173" />
</svg>
