<?xml version="1.0" encoding="UTF-8" standalone="no"?>
<svg
   xmlns:dc="http://purl.org/dc/elements/1.1/"
   xmlns:cc="http://creativecommons.org/ns#"
   xmlns:rdf="http://www.w3.org/1999/02/22-rdf-syntax-ns#"
   xmlns:svg="http://www.w3.org/2000/svg"
   xmlns="http://www.w3.org/2000/svg"
   xmlns:sodipodi="http://sodipodi.sourceforge.net/DTD/sodipodi-0.dtd"
   xmlns:inkscape="http://www.inkscape.org/namespaces/inkscape"
   inkscape:version="1.0 (4035a4fb49, 2020-05-01)"
   sodipodi:docname="logo.svg"
   id="svg21"
   version="1.1"
   height="20"
   width="139">
  <metadata
     id="metadata25">
    <rdf:RDF>
      <cc:Work
         rdf:about="">
        <dc:format>image/svg+xml</dc:format>
        <dc:type
           rdf:resource="http://purl.org/dc/dcmitype/StillImage" />
      </cc:Work>
    </rdf:RDF>
  </metadata>
  <sodipodi:namedview
     inkscape:current-layer="svg21"
     inkscape:window-maximized="1"
     inkscape:window-y="-8"
     inkscape:window-x="-8"
     inkscape:cy="10"
     inkscape:cx="69.5"
     inkscape:zoom="7.8633094"
     showgrid="false"
     id="namedview23"
     inkscape:window-height="777"
     inkscape:window-width="1280"
     inkscape:pageshadow="2"
     inkscape:pageopacity="0"
     guidetolerance="10"
     gridtolerance="10"
     objecttolerance="10"
     borderopacity="1"
     bordercolor="#666666"
     pagecolor="#ffffff" />
  <defs
     id="defs7">
    <linearGradient
       y2="100%"
       y1="0%"
       x2="17.503%"
       x1="72.195%"
       id="a">
      <stop
         id="stop2"
         stop-color="#33D35E"
         offset="0%" />
      <stop
         id="stop4"
         stop-color="#2AB6D9"
         offset="100%" />
    </linearGradient>
  </defs>
  <g
     id="g19"
     fill-rule="evenodd"
     fill="none">
    <path
       id="path9"
       d="M37.754 15.847c2.852 0 5.152-1.622 5.952-4.216h-3.897c-.376.665-1.14 1.066-2.055 1.066-1.237 0-2.065-.674-2.32-1.978h8.44c.051-.352.081-.694.081-1.037 0-3.335-2.537-5.95-6.201-5.95-3.568 0-6.175 2.564-6.175 6.049 0 3.473 2.628 6.066 6.175 6.066zm2.344-7.297h-4.596c.317-1.129 1.11-1.749 2.252-1.749 1.181 0 2 .613 2.344 1.75zm10.946 7.296c1.32 0 2.5-.434 3.43-1.188l.336.804h3.027V4.093h-2.919l-.4.88c-.94-.775-2.135-1.222-3.474-1.222-3.476 0-5.961 2.505-5.961 6.026 0 3.533 2.485 6.07 5.961 6.07zm.524-3.467c-1.467 0-2.545-1.108-2.545-2.593 0-1.475 1.069-2.583 2.545-2.583 1.466 0 2.544 1.108 2.544 2.583 0 1.485-1.078 2.593-2.544 2.593zm13.123 3.467c3.02 0 5.025-1.554 5.025-3.93 0-2.883-2.387-3.256-4.183-3.575-1.08-.193-1.95-.344-1.95-.99 0-.527.422-.838 1.05-.838.71 0 1.197.337 1.197 1.063h3.667c-.044-2.303-1.92-3.843-4.816-3.843-2.912 0-4.854 1.47-4.854 3.75 0 2.757 2.337 3.289 4.1 3.574 1.092.181 1.952.368 1.952 1.024 0 .587-.543.88-1.116.88-.742 0-1.32-.383-1.32-1.214h-3.77c.036 2.463 1.919 4.1 5.018 4.1zm8.1 3.858c2.936 0 4.344-1.257 5.877-4.736l4.764-10.863h-4.206l-2.249 6.263-2.412-6.263H70.31l4.698 10.43c-.53 1.414-.983 1.804-2.48 1.804H71.45v3.365h1.341zm18.504-3.858c3.5 0 5.973-2.515 5.973-6.048S94.796 3.75 91.295 3.75a5.332 5.332 0 00-2.825.784V0H84.6v15.474h2.897l.37-.844c.923.771 2.102 1.216 3.428 1.216zm-.523-3.467c-1.467 0-2.545-1.108-2.545-2.58 0-1.486 1.078-2.594 2.545-2.594 1.466 0 2.544 1.108 2.544 2.593 0 1.473-1.087 2.58-2.544 2.58zm13.598 3.467c1.32 0 2.5-.434 3.43-1.188l.336.804h3.027V4.093h-2.918l-.401.88c-.939-.775-2.135-1.222-3.474-1.222-3.476 0-5.96 2.505-5.96 6.026 0 3.533 2.484 6.07 5.96 6.07zm.524-3.467c-1.467 0-2.545-1.108-2.545-2.593 0-1.475 1.07-2.583 2.545-2.583 1.467 0 2.545 1.108 2.545 2.583 0 1.485-1.078 2.593-2.545 2.593zm12.653 3.095V9.403c0-1.447.702-2.3 1.923-2.3.986 0 1.483.657 1.483 1.98v6.39h3.915V8.543c0-2.897-1.733-4.773-4.373-4.773-1.47 0-2.733.565-3.58 1.508l-.537-1.172h-2.747v11.369h3.916zm13.748 0v-4.808l2.848 4.808h4.616l-3.902-5.95 3.543-5.419h-4.397l-2.708 4.454V0h-3.916v15.474h3.916z"
       fill-rule="nonzero"
       fill="#2D314D" />
    <g
       id="g17"
       fill="url(#a)">
      <path
         id="path11"
         d="M10.802 0L0 19.704h5.986L16.789 0z" />
      <path
         id="path13"
         d="M18.171 0L7.368 19.704h5.986L24.157 0z"
         opacity=".5" />
      <path
         id="path15"
         d="M25.539 0L14.737 19.704h5.986L31.525 0z"
         opacity=".15" />
    </g>
  </g>
  <path
     id="path27"
     d="m 35.862763,15.482966 c -1.099628,-0.355518 -1.771916,-0.752475 -2.489217,-1.469776 -1.498173,-1.498173 -2.068239,-3.798689 -1.473127,-5.9448469 0.909696,-3.280649 4.589844,-5.0806536 7.993388,-3.9096628 1.035034,0.356104 1.67063,0.7638024 2.41072,1.5463382 1.071013,1.1324386 1.57013,2.4253789 1.57013,4.0673546 v 0.8634919 h -4.262716 -4.262715 l 0.08234,0.349725 c 0.131084,0.556718 0.537625,1.143131 0.978087,1.410839 0.945625,0.574738 2.309112,0.434875 3.108283,-0.318839 l 0.456884,-0.430898 1.822693,0.03507 1.822692,0.03507 -0.378664,0.800321 c -0.6746,1.425791 -1.991696,2.499155 -3.682057,3.000684 -0.936751,0.277934 -2.783077,0.260516 -3.696726,-0.03487 z M 40.036024,8.2069884 C 39.67063,7.1588174 38.413707,6.5551158 37.166285,6.8286493 36.47515,6.9802008 36.121383,7.2346988 35.746052,7.8503589 c -0.46371,0.7606282 -0.491126,0.750739 2.081276,0.750739 h 2.346083 z"
     style="fill:#ffffff;stroke-width:0.127173" />
  <path
     id="path29"
     d="M 49.279506,15.551219 C 47.501591,14.963863 46.200041,13.722443 45.526064,11.97118 45.142135,10.973581 45.095,8.908837 45.431356,7.8225099 46.545537,4.2240381 50.969218,2.68329 54.140876,4.789023 l 0.410318,0.272419 0.217307,-0.4556981 0.217308,-0.4556982 h 1.375348 1.375348 v 5.5956085 5.5956088 h -1.44706 -1.44706 l -0.150664,-0.363736 -0.150665,-0.363736 -1.019825,0.521042 c -0.984294,0.502888 -1.067089,0.522146 -2.376429,0.55274 -0.865685,0.02023 -1.540687,-0.02912 -1.865296,-0.136354 z m 3.43893,-3.373976 c 1.968423,-0.89413 1.896679,-4.0820158 -0.10892,-4.8397838 -0.46074,-0.1740796 -1.621055,-0.1740796 -2.081795,0 -0.840704,0.3176398 -1.558755,1.395012 -1.562645,2.3446085 -0.0067,1.6249763 1.046404,2.7286323 2.603542,2.7286323 0.349726,0 0.867144,-0.105056 1.149818,-0.233457 z"
     style="fill:#ffffff;stroke-width:0.127173" />
  <path
     id="path31"
     d="m 62.553745,15.436741 c -0.463075,-0.161988 -1.055678,-0.457538 -1.316897,-0.656779 -0.782627,-0.596939 -1.462765,-1.858392 -1.464867,-2.716894 -7.08e-4,-0.289522 -2.7e-5,-0.289617 1.811505,-0.254346 1.738115,0.03384 1.813791,0.04634 1.850781,0.30562 0.07203,0.504875 0.618575,0.874222 1.293642,0.874222 0.765691,0 1.147663,-0.30187 1.147663,-0.906989 0,-0.584142 -0.310977,-0.753892 -2.047312,-1.117553 C 63.030791,10.796999 62.206633,10.59441 61.996798,10.513824 61.305314,10.248264 60.650616,9.7087892 60.303716,9.1187151 60.00905,8.6174898 59.962334,8.397511 59.964232,7.5201281 c 0.0025,-1.1544174 0.243062,-1.7544833 0.972245,-2.4251755 0.57061,-0.5248388 0.940789,-0.7398619 1.696185,-0.9852508 1.890738,-0.6142021 4.314941,-0.2523453 5.601465,0.8361212 0.467869,0.3958416 1.021146,1.3810383 1.142174,2.0338202 l 0.08842,0.4768984 H 67.683932 65.903145 L 65.82393,7.1409225 C 65.714562,6.7051671 65.071105,6.3941682 64.450985,6.4773437 c -0.64638,0.086698 -0.864526,0.2846003 -0.864526,0.7843 0,0.6280962 0.320215,0.8101405 2.051348,1.1662067 0.865194,0.1779565 1.844434,0.4396486 2.176089,0.5815381 1.30536,0.5584629 2.042925,1.9923115 1.772589,3.4459695 -0.18168,0.976931 -0.673867,1.794769 -1.37941,2.292082 -1.009314,0.71143 -1.608453,0.882002 -3.2853,0.935309 -1.344971,0.04276 -1.625992,0.01356 -2.36803,-0.246008 z"
     style="fill:#ffffff;stroke-width:0.127173" />
  <path
     id="path33"
     d="m 71.47118,18.029903 v -1.671257 l 1.049177,-4.71e-4 c 0.822487,-3.68e-4 1.13873,-0.05508 1.463651,-0.253183 0.425372,-0.259352 0.86939,-0.86464 0.99954,-1.362576 0.05147,-0.196929 -0.600332,-1.774875 -2.180062,-5.2776761 -1.239418,-2.7482212 -2.281256,-5.0682966 -2.315195,-5.155728 -0.04779,-0.1231204 0.397119,-0.1589662 1.97306,-0.1589662 1.508543,0 2.051491,0.041111 2.099433,0.1589662 0.03557,0.087431 0.560317,1.4465919 1.166111,3.0203568 0.605795,1.5737649 1.148081,2.9087423 1.20508,2.9666153 0.057,0.05787 0.275798,-0.3713348 0.486221,-0.9537967 0.210422,-0.5824619 0.716153,-1.9889737 1.123847,-3.1255816 l 0.741261,-2.06656 h 2.021085 c 1.565969,0 2.006778,0.035797 1.957555,0.1589662 -0.498582,1.2475545 -4.848031,11.0152191 -5.280646,11.8588751 -0.411523,0.802523 -0.83538,1.396516 -1.418369,1.987697 -1.078455,1.093613 -1.80621,1.38233 -3.72464,1.47765 l -1.367109,0.06793 z"
     style="fill:#ffffff;stroke-width:0.127173" />
  <path
     id="path35"
     d="m 89.569704,15.486593 c -0.362715,-0.125335 -0.890846,-0.380992 -1.173623,-0.568126 -0.282778,-0.187133 -0.539544,-0.340242 -0.570592,-0.340242 -0.03105,0 -0.122554,0.200297 -0.203348,0.445105 l -0.146898,0.445105 h -1.38904 -1.389039 V 7.7744739 0.08051235 h 1.844007 1.844007 V 2.3060384 c 0,1.2240394 0.04995,2.2255261 0.111007,2.2255261 0.06105,0 0.372953,-0.1158709 0.693108,-0.2574909 2.061911,-0.9120813 4.675878,-0.3981235 6.290968,1.2369289 1.183569,1.1981976 1.671115,2.4505316 1.67674,4.3069493 0.01051,3.4699332 -2.374605,5.9023712 -5.783259,5.8979952 -0.766752,-10e-4 -1.362243,-0.07669 -1.804038,-0.229354 z m 2.317991,-3.30935 c 1.012488,-0.45991 1.524139,-1.420479 1.432373,-2.6891277 -0.101603,-1.4046465 -1.090013,-2.2859195 -2.563822,-2.2859195 -1.333409,0 -2.250521,0.7470676 -2.518341,2.0514066 -0.443852,2.1616476 1.644507,3.8345146 3.64979,2.9236406 z"
     style="fill:#ffffff;stroke-width:0.127173" />
  <path
     id="path37"
     d="m 102.4711,15.475829 c -3.347213,-1.070019 -4.957236,-5.028712 -3.404166,-8.3700973 1.441596,-3.1015422 5.656076,-4.2695225 8.387616,-2.3244979 0.20007,0.1424623 0.39341,0.2590224 0.42965,0.2590224 0.0362,0 0.13199,-0.2002974 0.21278,-0.4451052 l 0.1469,-0.4451053 h 1.45262 1.45263 v 5.5956085 5.5956088 h -1.51363 -1.51364 l -0.13632,-0.391058 c -0.14312,-0.410554 -0.16233,-0.409706 -0.80564,0.03555 -1.06194,0.734995 -3.23512,0.961173 -4.7088,0.490076 z m 3.4345,-3.256373 c 1.88926,-0.789385 2.14648,-3.5624453 0.43132,-4.6501649 -1.0943,-0.6939859 -2.75321,-0.4314191 -3.49853,0.5537344 -0.68758,0.9088484 -0.72159,2.1843335 -0.085,3.1881155 0.626,0.987104 2.00952,1.385766 3.15222,0.908315 z"
     style="fill:#ffffff;stroke-width:0.127173" />
  <path
     id="path39"
     d="M 113.69259,9.8092406 V 4.1500457 h 1.30997 1.30998 l 0.27803,0.5722782 c 0.31444,0.6472037 0.39745,0.6814667 0.73838,0.3047517 0.95018,-1.0499368 3.21277,-1.4676884 4.77778,-0.8821416 0.98674,0.3691844 1.67264,1.0052995 2.16766,2.0103086 l 0.41866,0.8499648 0.0382,4.2316136 0.0382,4.231614 h -1.85037 -1.85037 V 12.30647 c 0,-3.6954519 -0.0898,-4.3832896 -0.63726,-4.8817216 -0.7085,-0.6450336 -2.04754,-0.3922027 -2.63053,0.4966835 -0.20493,0.3124514 -0.23364,0.7346359 -0.26852,3.9484321 l -0.0391,3.598571 h -1.90033 -1.90033 z"
     style="fill:#ffffff;stroke-width:0.127173" />
  <path
     id="path41"
     d="M 127.42726,7.7744739 V 0.08051235 h 1.9076 1.90759 l 0.004,4.29208605 c 0.004,3.8576031 0.0235,4.2663388 0.19626,4.0377401 0.10572,-0.1398902 0.73781,-1.1556839 1.40465,-2.2573193 l 1.21243,-2.0029735 h 2.09607 c 1.64233,0 2.07566,0.034411 2.00182,0.1589662 -0.0518,0.087431 -0.83052,1.2878621 -1.73042,2.6676239 -1.39919,2.1452891 -1.61652,2.5454091 -1.50039,2.7623853 0.0747,0.1395503 0.89765,1.4142219 1.82881,2.8326049 0.93117,1.418382 1.7346,2.650412 1.7854,2.737843 0.0724,0.124611 -0.3839,0.158966 -2.11134,0.158966 h -2.2037 l -1.46003,-2.448078 -1.46002,-2.448079 -0.0345,2.448079 -0.0345,2.448078 h -1.90485 -1.90485 z"
     style="fill:#ffffff;stroke-width:0.127173" />
  <path
     id="path43"
     d=""
     style="fill:#ffffff;stroke-width:0.127173" />
</svg>
